<svg width="23" height="16" viewBox="0 0 23 16" fill="none" xmlns="http://www.w3.org/2000/svg">
<path d="M22.3516 2.49936C22.2216 2.01538 21.9669 1.57402 21.6127 1.21945C21.2586 0.864885 20.8176 0.609542 20.3338 0.478981C18.5529 9.71897e-08 11.414 0 11.414 0C11.414 0 4.27516 -9.71897e-08 2.49427 0.476433C2.01024 0.606571 1.56898 0.861772 1.21479 1.21641C0.860604 1.57104 0.60596 2.01263 0.476433 2.49682C-9.71897e-08 4.28025 0 8 0 8C0 8 -9.71897e-08 11.7197 0.476433 13.5006C0.738853 14.4841 1.51338 15.2586 2.49427 15.521C4.27516 16 11.414 16 11.414 16C11.414 16 18.5529 16 20.3338 15.521C21.3172 15.2586 22.0892 14.4841 22.3516 13.5006C22.828 11.7197 22.828 8 22.828 8C22.828 8 22.828 4.28025 22.3516 2.49936ZM9.1465 11.414V4.58599L15.0573 7.97452L9.1465 11.414Z" fill="white"/>
</svg>
